<svg xmlns="http://www.w3.org/2000/svg" width="200" height="200" fill="none" viewBox="0 0 400 400">
  <path stroke="white" stroke-linecap="round" stroke-width="2"
    d="m49 236 4 8m94 94 19 6m-19-6c-6-6-14-9-23-11m23 11c-11-2-16-4-23-11m23 11c20 9 34 20 40 29 0 0 8 15 6 17m-46-46c1-1 0 1 8 10 0 0 0 0 0 0 23 18 36 37 38 36m-46-46c10 9 18 15 24 18v1c13 10 16 17 22 27m-46-46c0-4 1-7 4-8 1-1 2 1 2 2-1 5-3 7-6 6Zm44 10 19-1m-19 1 21 11m-21-11-25-4m78-2 18-8m-18 8c-14-1-22 0-34 5m34-5c-10 3-18 4-34 5m34-5 16 3m21-25-19 14m19-14 29-5m-29 5 9-12m-9 12c17-9 25-14 32-24m-51 38 18-29m0 0 7-11s0 0 0 0a19 19 0 0 0-2-15c-6-7-9-11-13-9m8 35-4-9-1-1 1-9s0 0 0 0l-4-16m8 35c2-8 2-18 0-23l-8-12m38 45 13-11c9-4 17-2 27 1m-40 10c8 1 11 4 22 2l1-1c9-5 19-9 17-11m-40 10 15-6s0 0 0 0c10 0 16-1 25-4m-60 3 9-11m-9 11v-5m9-6c-1-7-1-11 4-12 3 3 2 5-4 12Zm-9 6c-1-5-1-9 2-9h1c2 1 1 4-3 9Zm-30 42s1-6 18-5c14 0 15 3 19 6m-37-1 10 5h20c7-2 8-3 7-4m-37-1h0m-50 2 25-21m-25 21 12 4m13-25v-8c8-9 12-14 24-19m-24 27a96 96 0 0 0 22-16c3-5 2-7 2-11m-24 27 24-27m-37 52c7 2 11 3 18 7m-18-7c6 5 9 8 14 15m4-8 17 2m-17-2 24 12m-24-12c3 3 9 8 11 16m6-14c3-4 7-6 9-3v2c-2 2-4 2-9 1Zm7 10c7 1 11 1 11 5l-1 1c-3 3-6 0-10-6Zm-13 4c4 3 7 5 7 8l-2 2c-4-1-5-4-5-10Zm-15-8c4 2 6 4 7 6l-2 2c-4-1-4-3-5-8Zm-24-7c12 2 31 13 18 32m-18-32c6 9 5 14 12 21 3 3 4 6 6 11m-18-32c7 5 22 17 18 32m-64-47c14-5 19-8 25-16m-25 16 21-1m4-15c19-3 27-17 14-35m-14 35c11-17 13-34 14-35m-14 35c12-11 18-19 14-35m-18 50 18-6m-18 6 6-7m12 1c2-5 6-7 9-6 0 0 0 0 0 0 2 3-2 4-9 6Zm-12-1c1-4 5-6 7-5v1c0 3-1 3-7 4ZM58 261l10 8m-10-8v24m0-24c0-8-1-12-5-17m5 17c-4-6-5-10-5-17m5 17 14 22m30 2-34-16m34 16c4-5 13-3 14 2 0 0 0 0 0 0-1 3-8 2-14-2Zm-34-16 14 15m-14-15 8-2m6 17c5 0 9 0 8 3v1c-1 2-5 0-8-4Zm-6-17c3-4 7-6 9-3v1c-1 2-3 2-9 2Zm-18 34v-16m0 16-2 8m2-8 4 9m-4-25 8 7m0 0c4 0 7 1 8 3v2c-3 2-5-1-8-5Zm58 35a502 502 0 0 1-38-23l-14-21m52 44c7 10 12 9 12 26 0 7-4 18-20 23m8-49c12 35-11 41-8 49m8-49c12 24 12 32-8 49m8-49c-3 0-4-2-5-6l2-2c3 1 4 3 4 7l-1 1Zm189-31c8-3 11-6 15-13 0 0 0 0 0 0l3-12h1c9-15 13-39 10-39m-29 64 3-9h1v-14s0 0 0 0c9-19 22-41 25-41m-29 64 15-32 14-32m-45 114-37-1M56 309c-2 5-2 8-1 10h2c2-2 1-5-1-10Zm6 1c4 4 6 8 4 11l-1 1c-3-1-3-5-3-12Zm10-27c11 7 17 11 28 16 0 0 0 0 0 0 3 1 25 5 27 8m-55-24c17 18 25 28 36 28 0 0 0 0 0 0 2 0 21-2 19-4m-55-24c18 18 36 26 55 24m-53 2c1-4 2-6 4-7 2 0 3 1 2 2 0 4-2 6-4 6l-2-1Z" />
  <path stroke="white" stroke-width="2"
    d="M118 63c-14 0-18 5-21 13m21-13c-3 9-8 12-21 13m21-13c-2-8 9-10 12-5m-12 5c3 5 12 2 12-5M97 76c-12 2-11 6-15 15m15-15c-6 8-4 15-15 15m0 0c-10 1-10 7-10 10m10-10c1 6-3 8-10 10m0 0c-9 2-11 8-11 11m11-11c1 7-4 11-11 11m0 0c-9 0-8 12-6 17m6-17c3 4 1 10-6 17m0 0c-6 3-7 10-4 13m4-13c4 4 3 11-4 13m0 0c-10 3-6 11-11 17 10-2 17-11 11-17Zm79-84c-2-10 18-15 26-7 0 9-20 13-26 7Zm114-7c8-8 28-3 26 7m12 5c14 0 17 5 21 13m-21-13c3 9 8 12 21 13m-21-13c2-8-9-10-12-5m12 5c-3 5-13 2-12-5m33 18c12 2 11 6 15 15m-15-15c6 8 4 15 15 15m0 0c10 1 10 7 10 10m-10-10c-1 6 2 8 10 10m0 0c9 2 11 8 11 11m-11-11c-2 7 4 11 11 11m0 0c9 0 8 12 6 17m-6-17c-4 4-1 10 6 17m0 0c6 3 7 10 4 13m-4-13c-4 4-3 11 4 13m0 0c10 3 5 11 11 17-10-2-18-11-11-17Zm-79-84c-2 4-8 3-12 3" />
  <path stroke="white" stroke-width="2"
    d="M208 52c-5-1-9 3-11 6m11-6c-3-7-6-12-1-19m1 19c4 1 7 5 7 10m-7-10c3-5 5-8 5-13m-5 33h-6m6 0c-1 7 0 12 6 15m-6-15 3-2m-3 2c4 4 6 5 6 10m15-36-17 9c18-17 17-32 4-47-23 14-28 27-16 45l-9-11m38 4c21 4 29 15 29 15l-17 11m-12-26 8-9m-8 9 21-6m-9 32s-7 2-17 2m17-2c10 2 13 9 13 9l7 24c-13 1-17-2-22-5m-28-30c2-1 4-5 4-8m-4 8c3 3 6 4 13 4m-9-12c8-5 15-6 20-4m-20 4c5 2 8 4 14 3m-38-23c-15-14-38-2-38-2-1 8 12 21 15 22m23-20c0-3 0-5-2-9m7 32 1-7m-1 7c-8 2-14 3-20 1m20-1 2 4m-1-11c-5-4-9-7-16-8m16 8c-6 1-10 2-15 0m42 16c7 6 9 12 9 23m-9-23c13 4 19 10 24 19m-15 4 6 3m-6-3s0 9 3 14m-3-14-6 15m-14-2c-6-3-12-13-13-20m13 20s8 2 10 7l4-5m-14-2c-6 6-8 21-8 21s-14-13-15-30m12-29c-2 5-3 12-2 18m2-18-4-3m-22-3c-8 4-14 13-13 24m13-24-8-4m8 4c-11 1-15 3-24 15m11 9 1 12m-1-12-11 2-15 5c7-26 13-34 31-35m-5 28c-16 1-14 30-14 30 5-6 14-10 15-18m-1-12c-5 5-6 8-8 17m9-5 1 10c7-1 21-8 25-11m10-11c-3 5-6 8-10 11m10-11c-1 6-3 13 2 23m-4-44c-8 3-12 5-14 11m14-11c-2 6-2 9-8 11m49 20c5 5 4 24 4 24-6-6-13-5-16-12m10-75c-3-8-4-13-1-20 4 5 3 10 1 20Zm0 0 10-2m-10 2 2-4m3-10c0-6 1-9 7-10 1 4-1 7-7 10Zm0 0-3 10m0 0 6-4m-58 0c-5 0-5-2-4-6 3 1 4 2 4 6Zm0 0 2 4m0 0c-2 3-5 2-6-1 1-2 4-1 6 1Zm0 0c0-3 0-5 2-6 2 3 1 5-2 6Z" />
  <path fill="white"
    d="M289 207c3 0 5-20 5-20 1-3-1-6-3-3-2 4-7 18-10 17-1-2 1-10 2-14 0 0 1-4-2-3-3 4-4 11-4 15 0 2 1 5 4 5 4 0 7-7 8-10 0 3-3 13 0 13Z" />
  <path fill="white" fill-rule="evenodd"
    d="M314 185c-6-6-12 6-13 10v10c5 5 17-4 21-7-1 2-1 7 2 7 4 0 12-16 12-16l1 4c0 4 0 8 3 11 5 3 11-1 15-6 0 0 0-2-2-1 0 0-4 4-9 4-6 0-1-15-7-16-4-1-9 12-12 16 0-3 5-17 2-17s-4 8-5 11c-6 3-10 7-17 8-3 0-2-3-2-4 5-2 17-8 11-14Zm-3 2c-3-1-6 6-7 9 3-2 9-6 7-9Z" />
  <path fill="white"
    d="M60 179c1-4 4-3 4 0l-3 10 18-16c2-2 3 0 2 1-12 16-19 17-19 17l13 14c3 2-2 4-6 0l-9-12-3 12c-1 2-2 0-2 0v-8l5-18Zm40 6c2 0 3 1 1 2 0 0-16 8-15 17 0 0 4 0 14-16 0 0 3-3 3 1-7 21 8 8 8 8l4-12c4-4 3 2 3 2-7 18 0 23 14 6h-7c-2-1 1-3 1-3l8-1 6-15c3-4 3 1 3 1l-4 13 14-3 5-13s3-4 2 1c-8 25-12 40 9 24l2-12c3-4 4 1 4 1-5 18-3 19 6 3v-2c3-4 4 1 4 1s2 15-2 22c-6 12-20 5-20 5-4-4 1-4 1-4 15 8 19-6 17-18-2 8-12 17-13 7-15 17-23 4-16-12l-14 4-3 13c-2 3-3-1-3-1l2-10c-14 21-23 12-23 6-15 13-13-4-13-4-5 7-14 18-16 6 0 0 2-12 18-17Z" />
  <path fill="white"
    d="M121 177c0 2-2 3-3 3-2 0-2-1-2-2 0-2 1-3 2-3 2 0 3 1 3 2Zm74 9c1-3 4-2 3 1l-3 14 7-12s3-4 5-4c6 0 2 11 5 15s10-2 10-2c2-2 4-1 2 1 0 0-5 7-12 6s-4-16-6-16c-1 0-8 18-12 16-6-2 1-19 1-19Z" />
  <path fill="white" fill-rule="evenodd"
    d="M244 201c0 2 3 2 3 0l1-6s20-6 18 0c-3 6-16 9-16 9-6 0-4 5 2 3 0 0 13-2 17-10 0 0 7-10-9-8 0 0 6-9 0-13-13-5-17 14-16 25Zm4-10c1-10 5-12 5-12 8-3 9 10-5 12Z" />
  <path fill="white" d="m275 243-2 1h6l-2-2v-5c3-4 3-8 6-8v-1h-5c-1 1 2 1 2 2l-4 5-3-5 2-2c-3 1-7 0-6 1l2 1 4 7v6Z" />
  <path fill="white" fill-rule="evenodd"
    d="M224 244c-1-1 1-2 2-2l5-14c2 1 4 10 6 14l2 2h-6l2-1-2-5h-5l-1 5 2 1h-5Zm9-7h-4l2-6 2 6Zm-10 7c-6 0-8-9-10-7v5l2 2h-6c-1-1 1-1 1-1v-13c0-1-2-1-1-2 3 0 8-1 10 2 2 2 0 5-2 6 1 4 5 7 6 7v1Zm-8-8-2-1v-5c1-2 5 0 5 3l-3 3Z" />
  <path fill="white"
    d="M192 236c0 4 3 8 8 8l5-1c2 0-1-4 1-5 3-2-2-1-4-1-1 1 1 1 2 1v4c-3 2-15-2-7-12 3-2 7-1 8 2v-3c-6-2-13-1-13 7Zm-32-8v3c1 1 1-1 2-1h4v13l-2 1h6l-2-1v-13h5l1 1v-3h-14Z" />
  <path fill="white" fill-rule="evenodd"
    d="M147 242c-5-5-2-14 5-14 4 0 8 4 7 8 0 7-8 11-12 6Zm5-13c-7 0-6 10-3 13 11 4 10-13 3-13Zm25 13c-4-5-1-14 5-14 5 0 8 4 8 8 0 7-8 11-13 6Zm5-13c-6 0-6 10-2 13 10 4 9-13 2-13Z" />
  <path fill="white"
    d="M129 243s-2 0-1 1h5c1-2-1-1-1-1v-7h7v7c-1 0-3 0-2 1h6c0-2-2-1-2-1v-14h2v-1h-6v1h2v6h-7v-6s2 0 1-1h-5c-1 1 1 1 1 1v14Zm125 0s-2 0-1 1h5c1-2-1-1-1-1v-7h7v7c-1 0-3 0-2 1h6c0-2-2-1-2-1v-14h2v-1h-6v1h2v6h-7v-6s2 0 1-1h-5c-1 1 1 1 1 1v14Zm-137-1c0 1-3 1-2 2h6c0-2-1-1-2-2v-13c3-1 6 2 4 5-1 3-3 1-4 2 4 3 7-1 7-4 0-5-7-4-11-4-1 1 2 1 2 1v13Zm125 0c0 1-3 1-2 2h6c1-2-1-1-2-2v-13c4-1 6 2 5 5-2 3-4 1-4 2 3 3 6-1 6-4 0-5-7-4-11-4-1 1 2 1 2 1v13Z" />
</svg>