<svg xmlns="http://www.w3.org/2000/svg" width="80" height="80" fill="none" viewBox="0 0 80 80">
  <path stroke="#575352" d="M45 31c-3 0-5 2-6 3m6-3c-2-3-3-6-1-9m1 9c2 1 3 3 3 5m-3-5 2-6m-2 16h-3m3 0c-1 4-1 6 2 8m-2-8h1m-1 0c2 2 3 3 2 5m8-18-8 5c9-9 8-16 1-24-11 7-13 14-7 23l-5-6m19 2c10 2 15 8 15 8l-9 5m-6-13 4-4m-4 4 10-2m-4 15-8 1m8-1c5 1 7 5 7 5l3 12c-6 0-8-1-11-3M46 41l2-5m-2 5 7 1m-5-6c4-2 8-2 10-2m-10 2 7 2M36 26c-8-6-19-1-19-1 0 4 6 11 7 11m12-10-1-4m4 16v-4m0 4H29m10 0 1 2m-1-6-8-4m8 4h-7m21 8c3 3 4 6 4 12m-4-12c6 3 9 5 12 10m-8 2 3 1m-3-1s0 4 2 7m-2-7-3 7m-7-1c-3-1-6-6-6-10m6 10s4 1 5 4l2-3m-7-1c-3 3-4 11-4 11s-7-7-7-15m6-15c-1 3-2 6-1 9m1-9-2-1m-11-2c-5 2-7 7-7 12m7-12-5-2m5 2c-6 1-8 2-13 8m6 4v6m0-6-6 1-7 3c3-13 7-17 15-18m-2 14c-8 1-7 15-7 15 3-3 7-5 7-9m0-6-4 9m4-3 1 5c3 0 11-4 13-5m5-6-5 6m5-6c-1 3-2 7 1 12m-2-22c-4 1-6 2-7 5m7-5c-1 3-1 4-5 5m25 10c3 3 2 12 2 12-3-3-6-2-8-6m5-37c-1-4-2-6 0-10v10Zm0 0 5-1m-5 1 1-2m1-5c1-3 1-5 4-5 1 2-1 3-4 5Zm0 0-1 5m0 0 3-2m-29 0c-2 0-3-1-2-3 2 0 2 1 2 3Zm0 0 1 2m0 0c-1 1-2 1-3-1 1-1 2 0 3 1Zm0 0 1-3c1 1 0 2-1 3Z"/>
</svg>
