<svg xmlns="http://www.w3.org/2000/svg" width="340" height="100" fill="none" viewBox="0 0 340 100">
  <path fill="#575352" d="M255 50c2 0 5-20 5-20 1-3-1-6-3-3-2 4-8 18-10 17-1-2 1-10 2-14 0 0 1-4-3-3-2 3-3 11-3 15 0 2 0 5 4 5 3 0 7-7 8-10-1 3-3 13 0 13Z"/>
  <path fill="#575352" fill-rule="evenodd" d="M280 28c-6-6-12 6-14 10 0 3-1 7 1 9 4 6 17-4 20-6 0 2 0 7 3 7 4 0 11-17 11-17 2 1 1 4 1 5 0 4 0 8 4 10 5 3 11 0 14-5 0 0 1-3-1-2 0 0-4 5-9 5-6-1-1-15-7-16-4-1-9 12-12 15 0-2 5-16 2-16s-4 8-5 10c-6 4-11 8-18 9-2 0-1-3-1-5 4-1 17-7 11-13Zm-3 2c-4-1-6 6-7 8 2-1 9-5 7-8Z"/>
  <path fill="#575352" d="M25 22c2-4 4-3 4-1l-2 11 18-17c1-1 3 0 2 2-13 16-19 17-19 17 4 6 7 9 13 14 2 2-2 4-6 0L25 36l-2 11c-2 3-3 0-3 0v-7l5-18Zm41 6c2 0 3 1 1 2 0 0-16 8-16 17 0 0 4 0 15-16 0 0 3-3 2 1-6 21 9 8 9 8s1-9 4-12c4-4 2 2 2 2-6 18 1 23 14 6h-6c-3-1 1-3 1-3l7-1 7-15c3-4 3 1 3 1l-4 13 13-3 5-13s3-5 3 1c-8 25-12 40 8 23l3-11c3-4 3 1 3 1-4 18-2 19 7 3v-2c2-4 4 1 4 1s1 15-2 22c-6 12-20 4-20 4-4-3 1-3 1-3 15 8 18-6 17-18-2 8-13 17-13 7-16 16-24 4-17-12l-13 4-4 13c-2 3-3-1-3-1l3-10c-14 21-23 12-23 6-15 13-13-5-13-5-5 8-15 19-16 7 0 0 2-12 18-17Z"/>
  <path fill="#575352" d="M86 20c0 2-1 3-2 3-2 0-3-1-3-3l3-2 2 2Zm75 9c1-3 4-2 3 1l-3 14 7-13 4-3c6 0 2 11 6 15 3 3 10-2 10-2 2-2 3-1 2 1 0 0-5 7-12 5-8 0-4-15-7-15 0 0-7 17-12 16-5-2 2-19 2-19Z"/>
  <path fill="#575352" fill-rule="evenodd" d="M210 43c0 3 3 3 3 0v-5s21-6 19 0c-4 5-16 8-16 8-6 1-4 5 2 4 0 0 12-3 17-10 0 0 6-10-9-8 0 0 6-9 0-13-13-5-17 14-16 24Zm3-9c2-10 6-12 6-12 8-3 9 9-6 12Z"/>
  <path fill="#575352" d="M241 85c0 1-3 1-2 2h5c1-2-1-1-1-2v-5c2-4 3-8 6-8v-1h-5c-1 1 1 1 1 1l-3 6-3-5 2-2c-3 0-7 0-6 1l2 1 4 7v5Z"/>
  <path fill="#575352" fill-rule="evenodd" d="m189 87 2-2 6-14 6 14s2 1 1 2h-5c-1-1 1-1 1-2l-1-4h-5l-1 4c0 1 2 0 1 2h-5Zm10-8h-4l2-5 2 5Zm-11 8c-5 0-7-9-10-7v5c1 1 3 0 2 2h-6l2-2V72l-2-1c4 0 9-1 11 2 1 2 0 5-2 6 1 4 5 7 6 7l-1 1Zm-8-9h-2v-5c1-2 5 0 5 2s-1 3-3 3Z"/>
  <path fill="#575352" d="M158 79c0 4 3 8 7 8l6-1c1-1-1-4 1-5 3-2-2-1-5-1-1 1 2 0 2 1v4c-2 2-15-2-6-12 2-2 7-1 7 2 1 1 1-1 1-3-6-2-13-1-13 7Zm-32-8v3c1 1 1-1 1-1h5v13s-3 0-2 1h6l-2-1V73h5s0 2 1 1v-3h-14Z"/>
  <path fill="#575352" fill-rule="evenodd" d="M112 85c-4-5-1-14 6-14 4 0 7 4 7 8 0 7-8 11-13 6Zm5-13c-6 0-5 10-2 13 11 4 9-13 2-13Zm26 13c-5-5-2-14 5-14 4 0 8 4 8 8 0 7-8 11-13 6Zm5-13c-6 0-6 10-3 13 11 4 10-13 3-13Z"/>
  <path fill="#575352" d="M95 85c0 1-2 1-1 2h5l-1-2-1-6h7v6c0 1-2 1-1 2h5c1-2-1-1-1-2V72h1v-1h-5v1h1v6h-7l1-6s2 0 1-1h-5c-1 1 1 1 1 1v13Zm125 0c0 1-2 1-1 2h5l-1-2-1-6h7v6c0 1-2 1-1 2h5c1-2-1-1-1-2V72h1v-1h-5v1h1v6h-7l1-6s2 0 1-1h-5c-1 1 1 1 1 1v13ZM82 85c0 1-2 1-1 2h6c0-2-2-1-2-2V72c3-1 6 2 4 5-1 3-4 1-4 2 4 3 7-1 7-4 0-5-8-4-11-4-1 1 1 1 1 1v13Zm126 0c-1 1-3 1-2 2h6c0-2-2-1-2-2V72c3-1 6 2 4 5-1 3-3 1-4 2 4 3 7-1 7-4 0-5-7-4-11-4-1 1 1 1 2 1v13Z"/>
</svg>
