<svg xmlns="http://www.w3.org/2000/svg" width="200" height="200" fill="none" viewBox="0 0 200 200" color="white">
  <path stroke="currentColor" stroke-linecap="round" d="m24.7 118 2 4.1m46.8 47 9.6 2.7m-9.6-2.7c-3.2-2.9-7-4.8-11.6-5.4m11.6 5.4c-5.3-1-8.2-2.3-11.6-5.4m11.6 5.4a50.5 50.5 0 0 1 20 14.6s4.2 7.4 3 8.2m-23-22.8c.3-.4-.2.3 4 5h.1c11.2 8.7 18 18.2 18.8 17.8m-23-22.8c5.2 4.3 9 7.6 12 9.1l.3.2a41 41 0 0 1 10.7 13.5m-23-22.8c0-2.2.7-3.5 2.1-4.1.6-.3 1.2.3 1 1-.4 2.3-1.4 3.3-3 3Zm22 5.1 9.5-.6m-9.5.6 10.5 5.3m-10.5-5.3L83 171.8m39-1 8.9-3.9m-8.9 4c-7.3-.2-11.1.3-17.2 2.7m17.2-2.7a71.3 71.3 0 0 1-17.2 2.7m17.2-2.7 7.8 1.5m10.8-12.2-9.7 6.7m9.7-6.7 14-2.5m-14 2.5 4.2-6.1m-4.2 6.1c8.5-4.5 12.5-7 15.9-12M131 166.9l9-14.4m0 0 3.3-5.4v-.3a9.4 9.4 0 0 0-.6-7.2c-3.2-3.4-4.6-5.5-6.5-4.5m3.8 17.4c-.4-2-.8-3-2-4.3a1 1 0 0 1-.3-.8l.3-4.3v-.3l-1.8-7.7m3.8 17.4c1-3.8 1.2-9 0-11.4l-3.8-6m18.6 22.6c.8-1.3 4.1-4.4 6.6-5.8 4.4-2.1 8.6-1.1 13.8.8m-20.4 5c4.4.4 5.8 1.6 11.2.6l.3-.1c4.8-2.5 9.8-4.8 9-5.5m-20.5 5 7.5-3h.3c5-.4 7.7-.9 12.6-2m-30.3 1.4 4.5-5.7m-4.5 5.7v-2.8m4.5-2.9c-.4-3.4-.3-5.6 2.2-5.8 1.3 1.4 1 2.2-2.2 5.8Zm-4.5 2.9c-.2-2.4-.3-4.4 1.3-4.3h.3c1 .7.4 1.9-1.6 4.3Zm-14.8 21.1s.4-2.9 8.9-2.2c6.8 0 7.4 1.2 9.5 2.6m-18.4-.4c1.1 1.2 2 1.8 5 2.4 3.8.3 6 .3 9.8 0 3.6-.7 4-1.2 3.6-2m-18.4-.4h-.2m-25 1.2 12.7-10.7M105 173.6c.2.2 4.3 1.3 6 2m6.7-12.7-.3-3.3c0-.3 0-.6.2-.8 3.8-4.3 6.2-6.7 11.8-9.3M117.6 163a48 48 0 0 0 11-7.8c1.2-2.6 1.1-3.7.7-5.6M117.6 163l11.7-13.4m-18.3 26c3.4.7 5.3 1.5 8.8 3.5m-8.8-3.5c3 2.6 4.5 4 6.9 7.2m1.9-3.7 8.6.7m-8.6-.7 12 5.7m-12-5.7c1.6 1.4 4.5 3.7 5.8 7.8m2.8-7c1.6-1.8 3.5-2.7 4.8-1.3.3.3.2.7 0 1-1 .9-2.2.8-4.8.2Zm3.4 4.9c3.9.5 5.9.9 5.7 2.8 0 .2-.1.4-.3.5-1.5 1.3-3 0-5.4-3.3Zm-6.2 2c2 1.5 3.2 2.6 3.3 4.3 0 .5-.5.8-1 .7-2-.4-2.5-2-2.3-5Zm-7.7-4c2.1 1.3 3.1 2.2 3.4 3.3 0 .5-.4 1-1 .9-1.6-.4-2-1.7-2.4-4.2Zm-12-3.3c6 1.2 15.6 6.7 9 16m-9-16c3 4.7 2.6 7 6 10.3a11 11 0 0 1 3 5.7m-9-16c3.7 2.5 10.9 8.3 9 16M83 171.8c6.9-2.2 9.3-4 12.6-7.6M83 171.8l10.4-.4m2.2-7.2c9.4-1.6 13.1-8.6 6.6-17.6m-6.6 17.6c5-9 6.2-17.4 6.6-17.6m-6.6 17.6c6-5.8 8.7-9.5 6.6-17.6m-8.8 24.8 9-2.8m-9 2.8 3-3.6m6 .8c.8-2.4 3-3.8 4.3-3.2l.2.3c.8 1.4-.9 2-4.5 2.9Zm-6-.8c.6-1.6 2.6-3 3.5-2.2.2.1.2.3.2.5 0 1.2-.9 1.3-3.7 1.7Zm-67.3-37.1 4.9 3.7m-4.9-3.7v11.6m0-11.6c-.2-4.1-.8-6.1-2.6-8.6m2.6 8.6a11 11 0 0 1-2.6-8.6m2.6 8.6 7 10.6m14.9 1.3-17-8.2m17 8.2c1.7-2.4 6.4-1.5 6.7.7v.2c-.5 1.5-3.7.8-6.7-1Zm-17-8.2 7 7.4m-7-7.4 3.9-1m3 8.4c2.4.1 4.4.4 4 1.8v.2c-.7 1.2-2.4.3-4-2Zm-3-8.4c1.5-1.7 3.7-2.9 4.6-1.5v.7c-.5.8-1.6.7-4.6.8Zm-8.8 17v-8.1m0 8.1-1 4.3m1-4.3 1.6 4.7m-1.6-12.8L33 146m0 0c1.9 0 3.4.3 4.1 1.7.3.4 0 .9-.4 1-1.5.6-2.3-.6-3.7-2.7Zm28.8 17.7a250.9 250.9 0 0 1-18.9-12l-6.8-10.4m25.7 22.4c3.4 5 6.2 4.1 6.2 13 0 3.2-2 8.9-10.2 11.5m4-24.5c6.2 17.1-5.2 20.1-4 24.5m4-24.5c5.9 11.6 6.3 16-4 24.5m4-24.5c-1.2-.2-1.9-1.2-2.3-3.2 0-.6.5-1.2 1-1 1.3.6 2 1.7 2 3.3.1.5-.3 1-.7.9Zm94.7-15.5c3.7-1.8 5.6-3.1 7.5-6.7v-.2l1.6-5.6.2-.3c4.7-7.2 6.4-19.2 4.9-19.4m-14.2 32.2 1.6-4.7v-.2l.4-6.6.1-.4c4.5-9.3 10.9-20.5 12-20.3m-14.1 32.2L164 132c2.3-6.4 4.6-9.8 6.7-16.1m-22.3 56.8-18.6-.4M28 154.7c-1 2.3-1.3 3.6-.5 4.6.2.4.8.4 1 0 .8-1 .6-2.2-.5-4.6Zm2.7.4c2 1.9 3.4 4 2.3 5.4-.1.2-.4.4-.6.3-1.4-.3-1.6-2-1.7-5.7Zm5.4-13.8c5.2 3.7 8.2 5.9 13.8 8.2h.2c1.1.3 12.5 2.5 13.4 3.8m-27.4-12c8.2 9.4 12.5 14 17.7 14.4h.2c.9 0 10.4-1 9.5-2.4m-27.4-12c9 9.1 17.8 13.4 27.4 12m-26.4 1c0-1.6.8-2.7 2-3.2.6-.3 1.1.3 1 .9-.3 2-1 3-2.2 3.1a.7.7 0 0 1-.8-.8Z"/>
  <path stroke="currentColor" d="M59 31.7c-7.3-.1-9 2.3-10.8 6.3m10.6-6.2c-1.6 4.5-4 6-10.6 6.2m10.6-6.2c-1-4 4.7-5.1 6-2.5m-6 2.5c1.5 2.5 6.2.9 6-2.5M48.2 38c-6 1-5.2 3-7.5 7.4m7.5-7.4c-2.8 3.9-1.8 7.4-7.5 7.4m0 0C36 46 36 49.2 36 50.8m4.7-5.4c.5 3.4-1.1 4-4.7 5.4m0 0c-4.7.6-5.7 3.7-5.7 5.3m5.7-5.3c.5 3.4-2.2 5.2-5.7 5.3m0 0c-4.4 0-4 6.2-3 8.3m3-8.3c1.8 1.8.6 5.2-3 8.3m0 0c-3 1.9-3.6 5.3-2.1 6.9m2.1-6.9c2.1 2.3 1.5 5.5-2.1 6.9m0 0c-4.8 1.1-2.7 5.2-5.5 8.4 5-1 8.9-5.5 5.5-8.4Zm39.7-42c-1-5.2 8.9-7.7 13-4 0 5-10.1 7-13 4Zm56.9-4c4.2-3.8 14-1.3 13 3.9m6.1 2.5c7.1-.1 8.8 2.2 10.7 6.2m-10.7-6.2c1.7 4.5 4.1 6 10.7 6.2m-10.7-6.2c1.1-4-4.6-5.1-6-2.5m6 2.5c-1.5 2.5-6.2.9-6-2.5m16.7 8.7c6 1 5.2 3 7.5 7.4m-7.5-7.4c2.8 3.9 1.8 7.4 7.5 7.4m0 0c4.7.6 4.7 3.8 4.7 5.4m-4.7-5.4c-.6 3.4 1 4 4.7 5.4m0 0c4.7.6 5.6 3.7 5.6 5.3m-5.6-5.3c-.6 3.4 2.1 5.2 5.6 5.3m0 0c4.4 0 4.1 6.2 3 8.3m-3-8.3c-1.7 1.8-.5 5.2 3 8.3m0 0c3.1 1.9 3.6 5.3 2.2 6.9m-2.2-6.9c-2 2.3-1.5 5.5 2.2 6.9m0 0c4.8 1.1 2.6 5.2 5.5 8.4-5-1-9-5.5-5.5-8.4Zm-39.7-42c-1 1.8-4 1.2-5.8 1.2"/>
  <path stroke="currentColor" d="M104 26c-2.5-.5-4.6 1.3-5.5 3m5.6-3c-1.6-3.6-3-5.9-.6-9.6m.6 9.6c2 .6 3.4 2.5 3.4 5m-3.4-5c1.6-2.5 2.2-4 2.4-6.6M104 36a7 7 0 0 1-2.8 0m2.8 0c-.3 3.7-.1 6 2.8 7.5M104 36l1.7-.8m-1.7.8c2.1 2.1 3 2.6 2.8 4.8m7.7-17.8-8.3 4.3c8.9-8.5 8.3-15.6 1.7-23.3-11.3 6.9-13.7 13.5-7.8 22.6L95.3 21m19.2 2c10.4 2 14.7 7.7 14.7 7.7l-8.7 5.1m-6-12.8 4-4.7m-4 4.7a61 61 0 0 1 10.4-2.8m-4.4 15.6s-3.7 1.2-8.3 1.3m8.3-1.3c5 1 6.6 5 6.6 5l3.2 11.6c-6.1.6-8.2-1.1-10.9-2.3m-13.7-15c1-.7 1.8-2.6 1.8-4.1m-1.8 4.2c1.3 1.2 3 1.7 6.5 2m-4.7-6.2c4.2-2.7 7.6-2.8 10-2m-10 2c2.6.8 4.1 1.9 7.2 1.7M95.3 21c-7.3-6.8-18.8-1.2-18.8-1.2-.3 4.2 6.2 10.6 7.3 11.3m11.5-10c.4-1.6.2-2.8-.6-4.7m3.5 16a6 6 0 0 1 .3-3.5m-.3 3.4a19.7 19.7 0 0 1-10.1.8m10-.8c.2.5.2 1.2.9 2.2m-.5-5.6c-2.4-2-4.4-3.2-7.8-3.7m7.8 3.7c-3 .8-5 1.2-7.5 0m21.2 8.2c3.4 3 4.3 5.7 4 11.2m-4-11.2c6.2 2.1 9.1 5 12 9.4m-8 1.8c1.1.7 2.1 1.3 3.2 1.8m-3.1-1.8s.4 4.7 2 7m-2-7a43 43 0 0 1-2.7 7.6m-6.9-1c-3.3-1.2-6.1-6.6-6.5-9.7m6.5 9.8s3.8 1 4.8 3.6l2-2.7m-6.8-1c-3.4 3-4 10.5-4 10.5s-7.4-6.6-7.6-15m6-14.4c-.9 2.4-1.4 5.8-1 9.2m1-9.2c-.5-.2-1.6-.8-2.1-1.5m-11-1.4c-4.2 1.9-7 6.5-6.4 11.7m6.5-11.7c-1.5-.4-2.9-1-4.3-2m4.3 2c-5.4.6-7.6 1.3-12.1 7.6m5.6 4.1.3 6m-.3-6c-2.1.2-4 1-5.6 1.3-2.6.5-4.5.8-7.4 2.3C72 35.7 75 31.4 83.8 31m-2.2 13.7c-8.3 1-7 15.2-7 15.2 2.4-3 7-4.8 7.3-9.2m-.3-6a14.3 14.3 0 0 0-4.1 8.5m4.4-2.5.6 5.2c3.3-.6 10.7-4.1 12.6-5.6m5-5.2c-1.7 2-3.2 3.8-5 5.2m5-5.2a14 14 0 0 0 1 11.5M99 34.5c-3.9 1.5-5.9 2.3-7 5.3m7-5.3c-1 3-.8 4.5-4.2 5.3m24.6 10.3c2.6 2.6 1.9 12 1.9 12-2.8-3-6-2.7-7.7-6.2m5-37.6c-1.6-4-2-6-.5-9.8 1.9 2.4 1.5 5 .5 9.8Zm0 0c2.5-.1 3.6-.2 4.7-.8m-4.7.8.7-2m1.6-4.6c0-3.1.5-4.6 3.7-5.4.4 2.3-.8 3.5-3.7 5.4Zm0 0-1.6 4.6m0 0c1.4-1 2.1-1.4 3.3-1.6m-29-.3c-2.4-.1-2.7-.8-2.2-2.7 1.7.2 2.2.7 2.3 2.7Zm0 0 1 2m0 0c-1.2 1.4-2.5 1.3-3-.3.6-1 1.8-.7 3 .3Zm0 0c-.1-1.5.1-2.6 1-3.1 1 1.8.2 2.6-1 3.1Z"/>
  <path fill="currentColor" d="M144.6 103.5c1.2 0 2.5-10.1 2.5-10.1.5-1.6-.4-2.8-1.5-1.6-1 2.3-3.8 9.4-5 8.8-.6-1 .4-5 .9-6.9 0 0 .5-2-1.2-1.6-1.3 1.7-1.6 5.4-1.6 7.4 0 1 .2 2.5 1.9 2.6 1.7 0 3.4-3.5 4-5-.3 1.4-1.7 6.5 0 6.4Z"/>
  <path fill="currentColor" fill-rule="evenodd" d="M157 92.6c-3-3-6 2.8-6.6 5-.4 1.4-.6 3.5.3 4.7 2 2.8 8.2-2 10.1-3.5-.1 1.1-.3 3.8 1.4 3.8s5.6-8.3 5.6-8.3c.7.4.6 1.7.6 2.4 0 1.6 0 4 1.6 5 2.6 1.6 5.7-.3 7.3-2.7 0 0 .3-1.2-.7-.7 0 0-2 2-4.5 2.2-3.1-.2-.5-7.4-3.7-8-1.8-.6-4.3 6.1-6 7.8.2-1.1 2.7-8.3 1.2-8.3-1.6 0-2.1 4-2.4 5.3-3 1.6-5.3 3.8-8.9 4-1 0-.7-1.3-.6-2 2.1-.7 8.4-3.7 5.3-6.7Zm-1.4 1c-1.7-.5-3 3-3.4 4.2 1.2-.8 4.4-2.7 3.4-4.2Z" clip-rule="evenodd"/>
  <path fill="currentColor" d="M29.8 89.7c.7-2.3 2-1.7 2-.4l-1.4 5.2 9.2-8.2c.7-.6 1.5 0 1 .8-6.2 7.8-9.4 8.5-9.4 8.5 2.2 2.8 3.5 4.3 6.3 6.9 1.3 1.1-.8 2.2-2.8.1a30.8 30.8 0 0 1-4.9-6.1l-1.2 5.8c-.7 1.2-1.3 0-1.3 0-.5-1.2-.3-1.7 0-3.6l2.5-9Zm20.3 2.9c.9-.2 1.3.6.4 1.1 0 0-8 3.8-7.7 8.3 0 0 2.1.1 7.1-8 0 0 1.8-1.5 1.4.5-3.1 10.7 4.4 3.9 4.4 3.9s.7-4.5 2-5.8c1.9-2 1.2 1 1.2 1-3.3 8.9.3 11.6 7 2.8 0 0-2.4.3-3.2.2-1.4-.7.3-1.4.3-1.4l3.8-.5 3.3-7.6c1.6-2 1.6.3 1.6.3l-2 6.8 6.6-1.6 2.5-6.5s1.5-2.3 1.3.4c-4 12.4-6 19.9 4.3 11.8.2-2.6 1.3-5.7 1.3-5.7 1.4-2 1.6.6 1.6.6-2.3 8.8-1.4 9.4 3.3 1.5v-1.3c1.2-1.8 1.8.4 1.8.4s1 7.5-.9 11.3c-3 5.9-10 2.2-10 2.2-1.9-1.7.6-1.8.6-1.8 7.5 3.8 9.2-2.8 8.6-8.9-1.2 4.1-6.3 8.6-6.5 3.4-7.9 8.3-11.9 2.2-8.4-6 0 0-2.4 1.2-6.6 1.9l-1.8 6.5c-1.1 1.6-1.6-.2-1.6-.2L67 97c-6.9 10.8-11.3 6.3-11.3 3.1-7.7 6.5-6.6-2.2-6.6-2.2-2.5 3.9-7.3 9.3-8.1 3.2 0 0 1-6 9.1-8.4Z"/>
  <path fill="currentColor" d="M60.4 88.7c0 .7-.7 1.2-1.4 1.2-.8 0-1.1-.5-1.1-1.1 0-.7.6-1.2 1.3-1.2.7 0 1.2.5 1.2 1.1Zm37.2 4.5c.6-1.6 2-1.1 1.5.4l-1.5 6.8 3.6-6s1.4-2 2-1.8c3.1.1 1.2 5.6 2.8 7.5 1.7 1.7 5-1.2 5-1.2 1-1 1.8-.4 1 .5 0 0-2.3 3.8-6 2.9-3.7-.4-2-7.7-3.2-7.8-.2 0-3.8 8.8-6 8.1-2.8-1 .8-9.4.8-9.4Z"/>
  <path fill="currentColor" fill-rule="evenodd" d="M122 100.3c.1 1.2 1.5 1.2 1.6 0l.2-3s10.4-2.8 9.1.2c-1.6 2.8-7.8 4.3-7.8 4.3-3 .4-1.9 2.5.9 1.9 0 0 6.3-1.4 8.4-5.1 0 0 3.4-5.2-4.4-4 0 0 3.1-4.6 0-6.7-6.5-2.5-8.4 7-8 12.4Zm2-4.7c.6-5 2.6-6 2.6-6 4-1.6 4.6 4.7-2.7 6Z" clip-rule="evenodd"/>
  <path fill="currentColor" d="M137.6 121.3c-.1.2-1.3.2-.9.6h2.7c.2-.6-.6-.4-.8-.7v-2.8c1.3-1.7 1.6-4 3-4 .2 0 .1-.3.1-.3h-2.6c-.4.4.8.3.8.7a9 9 0 0 1-1.7 2.8l-1.5-2.7c0-.6 1-.3.8-.8-1.4.2-3.3-.3-3 .3.5 0 .8.3 1 .6l2 3.7v2.6Z"/>
  <path fill="currentColor" fill-rule="evenodd" d="M111.9 121.8c-.3-.2.8-.6 1-1l2.6-6.7c.8.3 2.2 4.7 3 7 0 0 1.2.4.9.7h-2.7c-.3-.3.6-.3.7-.5.2-.4-.7-2.4-.7-2.4h-2.5s-.8 2.1-.6 2.4c.3.2.9 0 .7.5H112Zm4.6-3.5h-2l1-2.7 1 2.7Zm-5.1 3.7c-2.7.2-3.7-4.3-5.1-3.6v2.8c.3.5 1.2 0 1 .7h-3c-.4-.4.8-.4.9-.6v-6.5c-.1-.2-1.3-.2-.8-.7 1.5 0 4-.5 5.2 1 .8 1 .1 2.5-1 3a5.3 5.3 0 0 0 3 3.4c.2.3 0 .4-.2.4Zm-4.1-4.2s-1 0-1-.4v-2.3c.6-1 2.6-.1 2.6 1.2 0 .9-.8 1.5-1.6 1.5Z" clip-rule="evenodd"/>
  <path fill="currentColor" d="M96 118.2c0 2 1.7 3.8 3.8 3.8 1 0 2-.1 3-.6.5-.1-.6-2 .1-2.4 1.7-1-1-.5-2-.6-.5.5.8.4.9.6v2.2c-1.1.9-7.5-1.3-3.2-6.1 1.2-1 3.3-.5 3.8 1.1.4.3.2-.8.3-1.6-3.2-1.3-6.7-.5-6.7 3.6ZM80.2 114l-.2 1.7c.5.5.6-.6.8-.8.4-.3 2.2 0 2.2 0v6.5c0 .2-1.2.2-.8.6H85c.2-.7-.6-.2-.8-.6v-6.5s1.9-.3 2.2 0c.3.2.4 1.3.8.8l-.2-1.6c-2.3.3-4.2.2-6.8 0Z"/>
  <path fill="currentColor" fill-rule="evenodd" d="M73.4 120.8c-2.3-2.3-.8-6.8 2.6-6.7 2.1 0 3.8 1.9 3.7 4 0 3.3-4 5.3-6.3 2.7Zm2.4-6.2c-3 0-2.8 4.9-1.1 6.3 5.3 2 4.6-6.4 1.1-6.3Zm12.8 6.2c-2.3-2.3-.8-6.8 2.6-6.7 2.1 0 3.8 1.9 3.8 4 0 3.3-4 5.3-6.4 2.7Zm2.4-6.2c-3 0-2.8 4.9-1.1 6.3 5.3 2 4.6-6.4 1.1-6.3Z" clip-rule="evenodd"/>
  <path fill="currentColor" d="M64.7 121.3c0 .2-1.2.2-.8.6h2.8c.2-.7-.6-.2-.8-.6V118h3.5s.1 2.4-.1 3.2c0 .2-1.2.2-.8.6h2.8c.1-.7-.6-.2-.8-.6v-6.6l.8-.3v-.3h-2.8v.3l.8.3v3l-3.5-.2.1-2.8c.2-.4 1 0 .8-.6h-2.8c-.4.4.7.3.8.6v6.6Zm62.5 0c0 .2-1.2.2-.7.6h2.7c.2-.7-.6-.2-.8-.6V118h3.5s.1 2.4 0 3.2c-.2.2-1.3.2-.9.6h2.8c.2-.7-.6-.2-.8-.6v-6.6l.8-.3v-.3H131v.3l.8.3v3l-3.4-.2v-2.8c.2-.4 1 0 .8-.6h-2.7c-.5.4.7.3.7.6v6.6Zm-68.8-.1c0 .2-1.2.2-.8.7h3c.1-.7-.8-.3-1-.7v-6.5c1.6-.5 3 1 2.1 2.5-.6 1.4-1.8.5-2 1 1.9 1.2 3.3-.7 3.3-2 0-2.7-3.6-2-5.4-2-.4.3.7.3.8.5v6.5Zm62.6 0c-.1.2-1.3.2-.8.7h3c0-.7-.8-.3-1-.7v-6.5c1.6-.5 3 1 2.1 2.5-.6 1.4-1.8.5-2 1 1.8 1.2 3.3-.7 3.3-2 0-2.7-3.6-2-5.4-2-.5.3.7.3.8.5v6.5Z"/>
</svg>
