<svg xmlns="http://www.w3.org/2000/svg">

  <symbol id="material-close" viewBox="0 -960 960 960">
    <path d="m256-200-56-56 224-224-224-224 56-56 224 224 224-224 56 56-224 224 224 224-56 56-224-224-224 224Z" />
  </symbol>

  <symbol id="email" viewBox="0 0 240 240">
    <path fill="#fff" d="M17 63c0-11 9-20 20-20h165c11 0 20 9 20 20v115c0 11-9 20-20 20H37c-11 0-20-9-20-20V63Z" />
    <path fill="#FE5959"
      d="M17 63c0-11 9-20 20-20h6l77 61 77-61h5c11 0 20 9 20 20v115c0 11-9 20-20 20h-5V77l-77 60-77-60v121h-6c-11 0-20-9-20-20V63Z" />
    <path fill="#E5E7E8" d="m120 137 77-60v121l-77-61Z" />
  </symbol>

  <symbol id="facebook" viewBox="0 0 240 240">
    <path fill="#0866FF" d="M220 123a100 100 0 1 1-200 0 100 100 0 0 1 200 0Z" />
    <path fill="#fff"
      d="M96 154H75v-31h21v-21a42 42 0 0 1 39-42c11-1 21 0 32 3v27h-20c-9 2-12 5-15 13v20h33l-6 31h-27l2 68c-9 2-29 1-38-2v-66Z" />
  </symbol>

  <symbol id="messenger" viewBox="0 0 240 240">
    <path fill="#0866FF" fill-rule="evenodd"
      d="M120 215c55 0 100-44 100-98 0-53-45-97-100-97a99 99 0 0 0-100 97c0 28 12 53 31 71 2 2 3 4 3 7v18c0 5 6 9 11 7l20-9h7c9 2 18 4 28 4ZM95 85c-5 0-39 58-39 58-4 5 3 11 9 7 0 0 34-26 38-26 2 0 8 5 15 10 9 6 20 14 23 13 6 0 38-57 38-57 3-5-1-12-8-7 0 0-36 25-38 25s-8-4-15-9c-9-6-19-14-23-14Z" />
    <path fill="#fff"
      d="M56 143s34-58 39-58c4 0 14 8 23 14 7 5 13 9 15 9s38-25 38-25c7-5 11 2 8 7 0 0-32 57-38 57-3 1-14-7-23-13-7-5-13-10-15-10-4 0-38 26-38 26-6 4-13-2-9-7Z" />

  </symbol>

  <symbol id="instagram" viewBox="0 0 240 240">
    <defs>
      <linearGradient id="a" x1="120" x2="10" y1="86" y2="230" gradientUnits="userSpaceOnUse">
        <stop stop-color="#F040B5" />
        <stop offset=".5" stop-color="#FF9B0F" />
      </linearGradient>
      <linearGradient id="b" x1="120" x2="-60.6" y1="64.2" y2="300.6" gradientUnits="userSpaceOnUse">
        <stop stop-color="#F040B5" />
        <stop offset=".5" stop-color="#FF9B0F" />
      </linearGradient>
      <linearGradient id="c" x1="120" x2="-312.9" y1="-18" y2="581.4" gradientUnits="userSpaceOnUse">
        <stop stop-color="#F040B5" />
        <stop offset=".5" stop-color="#FF9B0F" />
      </linearGradient>
      <linearGradient id="d" x1="120" x2="-27.6" y1="74.4" y2="267.6" gradientUnits="userSpaceOnUse">
        <stop stop-color="#F040B5" />
        <stop offset=".5" stop-color="#FF9B0F" />
      </linearGradient>
    </defs>
    <path fill="url(#a)" fill-rule="evenodd"
      d="M181 10c27 0 49 22 49 50v121c0 27-22 49-49 49H60c-28 0-50-22-50-49V60c0-28 22-50 50-50h121ZM85 38c-25 0-47 22-47 47v70c0 26 22 47 47 47h74c23 0 43-20 43-43V85c0-25-21-47-47-47H85Z" />
    <path fill="url(#b)" fill-rule="evenodd"
      d="M187 85c0-17-15-32-32-32H85c-17 0-32 15-32 32v70c0 17 15 32 32 32h74c15 0 28-13 28-28V85Zm-67-8c-23 0-41 19-41 43s18 43 41 43 41-19 41-43-18-43-41-43Zm53-1c0 6-4 10-9 10s-9-4-9-10c0-5 4-9 9-9s9 4 9 9Z" />
    <path fill="url(#c)" d="M146 120c0 16-11 28-26 28s-26-12-26-28c0-15 11-27 26-27s26 12 26 27Z" />
    <path fill="url(#d)" fill-rule="evenodd"
      d="M85 38c-25 0-47 22-47 47v70c0 26 22 47 47 47h74c23 0 43-20 43-43V85c0-25-21-47-47-47H85Zm70 15c17 0 32 15 32 32v74c0 15-13 28-28 28H85c-17 0-32-15-32-32V85c0-17 15-32 32-32h70Z" />
    <path fill="white" fill-rule="evenodd"
      d="M85 38c-25 0-47 22-47 47v70c0 26 22 47 47 47h74c23 0 43-20 43-43V85c0-25-21-47-47-47H85Zm70 15c17 0 32 15 32 32v74c0 15-13 28-28 28H85c-17 0-32-15-32-32V85c0-17 15-32 32-32h70Z" />
    <path fill="white" d="M164 86c5 0 9-4 9-10 0-5-4-9-9-9s-9 4-9 9c0 6 4 10 9 10Z" />
    <path fill="white" fill-rule="evenodd"
      d="M79 120c0-24 18-43 41-43s41 19 41 43-18 43-41 43-41-19-41-43Zm41 28c15 0 26-12 26-28 0-15-11-27-26-27s-26 12-26 27c0 16 11 28 26 28Z" />
  </symbol>

  <symbol id="material-link" viewBox="0 -960 960 960">
    <path
      d="M200-120q-33 0-56.5-23.5T120-200v-560q0-33 23.5-56.5T200-840h280v80H200v560h560v-280h80v280q0 33-23.5 56.5T760-120H200Zm188-212-56-56 372-372H560v-80h280v280h-80v-144L388-332Z" />
  </symbol>

  <symbol id="material-menu" viewBox="0 -960 960 960">
    <path d="M120-240v-80h720v80H120Zm0-200v-80h720v80H120Zm0-200v-80h720v80H120Z" />
  </symbol>

  <symbol id="material-left-arrow" viewBox="0 -960 960 960">
    <path d="M400-240 160-480l240-240 56 58-142 142h486v80H314l142 142-56 58Z" />
  </symbol>

  <symbol id="material-right-arrow" viewBox="0 -960 960 960">
    <path d="m560-240-56-58 142-142H160v-80h486L504-662l56-58 240 240-240 240Z" />
  </symbol>

  <symbol id="material-send" viewBox="0 -960 960 960">
    <path d="M120-160v-640l760 320-760 320Zm80-120 474-200-474-200v140l240 60-240 60v140Zm0 0v-400 400Z" />
  </symbol>

  <symbol id="material-share" viewBox="0 -960 960 960">
    <path
      d="M680-80q-50 0-85-35t-35-85q0-6 3-28L282-392q-16 15-37 23.5t-45 8.5q-50 0-85-35t-35-85q0-50 35-85t85-35q24 0 45 8.5t37 23.5l281-164q-2-7-2.5-13.5T560-760q0-50 35-85t85-35q50 0 85 35t35 85q0 50-35 85t-85 35q-24 0-45-8.5T598-672L317-508q2 7 2.5 13.5t.5 14.5q0 8-.5 14.5T317-452l281 164q16-15 37-23.5t45-8.5q50 0 85 35t35 85q0 50-35 85t-85 35Zm0-80q17 0 28.5-11.5T720-200q0-17-11.5-28.5T680-240q-17 0-28.5 11.5T640-200q0 17 11.5 28.5T680-160ZM200-440q17 0 28.5-11.5T240-480q0-17-11.5-28.5T200-520q-17 0-28.5 11.5T160-480q0 17 11.5 28.5T200-440Zm480-280q17 0 28.5-11.5T720-760q0-17-11.5-28.5T680-800q-17 0-28.5 11.5T640-760q0 17 11.5 28.5T680-720Zm0 520ZM200-480Zm480-280Z" />
  </symbol>

  <symbol id="material" viewBox="0 -960 960 960">
    <path />
  </symbol>

</svg>